<svg width="151" height="42" viewBox="0 0 151 42" fill="none" xmlns="http://www.w3.org/2000/svg">
<g clip-path="url(#clip0_1_12077)">
<path d="M7.05179 18.1826C5.02971 18.1826 3.31349 19.1002 2.39591 20.7145V13.051H0V24.6567C0 28.7348 2.78673 31.3346 6.66096 31.3346C10.5352 31.3346 13.4239 28.5989 13.4239 24.6737C13.4069 20.5446 10.3313 18.1826 7.05179 18.1826ZM6.67796 29.1257C4.12912 29.1257 2.39591 27.3075 2.39591 24.7756C2.39591 22.2438 4.11213 20.4256 6.67796 20.4256C9.24379 20.4256 10.977 22.2438 10.977 24.7756C10.977 27.3075 9.26078 29.1257 6.67796 29.1257Z" fill="#E5E5E5"/>
<path d="M21.4441 18.1827C17.5018 18.1827 14.7151 20.9694 14.7151 24.7587C14.7151 28.548 17.5018 31.3517 21.4441 31.3517C25.3863 31.3517 28.173 28.565 28.173 24.7757C28.173 20.9864 25.3863 18.1827 21.4441 18.1827ZM21.4441 29.1257C18.8612 29.1257 17.145 27.3076 17.145 24.7757C17.145 22.2439 18.8612 20.4257 21.4441 20.4257C24.0269 20.4257 25.7431 22.2439 25.7431 24.7757C25.7431 27.3076 24.0269 29.1257 21.4441 29.1257Z" fill="#E5E5E5"/>
<path d="M39.4221 18.5226V25.0476C39.4221 27.7494 37.9268 29.1258 35.6499 29.1258C33.3729 29.1258 31.8776 27.7664 31.8776 25.0476V18.5226H29.4817V25.0476C29.4817 29.2277 31.9625 31.3518 35.6499 31.3518C39.3372 31.3518 41.8181 29.1937 41.8181 25.0476V18.5226H39.4221Z" fill="#E5E5E5"/>
<path d="M43.534 13.0342V31.3519H45.9299V13.0342H43.534Z" fill="#E5E5E5"/>
<path d="M66.6436 18.0809V20.4768H64.7235V31.3519H62.3106V13.0342H64.7235V18.0809H66.6436Z" fill="#E5E5E5"/>
<path d="M72.6589 18.0809V20.4768H70.7217V31.3519H68.3258V13.0342H70.7217V18.0809H72.6589Z" fill="#E5E5E5"/>
<path d="M61.0532 24.7245C61.0532 20.9352 58.3174 18.1485 54.3752 18.1485C50.433 18.1485 47.6463 20.9182 47.6463 24.7245C47.6463 28.5308 50.433 31.3005 54.3752 31.3005C57.2809 31.3005 59.5578 29.8052 60.5264 27.4772H57.8756C57.1449 28.5648 56.0065 29.0745 54.3922 29.0745C52.2172 29.0745 50.5519 27.8341 50.1951 25.6081H61.0702L61.0532 24.7245ZM50.2631 23.4501C50.7389 21.479 52.3191 20.3575 54.3922 20.3575C56.4653 20.3575 58.0625 21.445 58.5383 23.4501H50.2631Z" fill="#E5E5E5"/>
<path d="M86.0659 24.7245C86.0659 20.9352 83.3301 18.1485 79.3879 18.1485C75.4457 18.1485 72.659 20.9182 72.659 24.7245C72.659 28.5308 75.4457 31.3005 79.3879 31.3005C82.2936 31.3005 84.5706 29.8052 85.5391 27.4772H82.8883C82.1577 28.5648 81.0192 29.0745 79.4049 29.0745C77.2299 29.0745 75.5647 27.8341 75.2078 25.6081H86.0829L86.0659 24.7245ZM75.2588 23.4501C75.7346 21.479 77.3149 20.3575 79.3879 20.3575C81.461 20.3575 83.0583 21.445 83.5341 23.4501H75.2588Z" fill="#E5E5E5"/>
<path d="M93.8991 17.1463C90.0249 17.1463 87.2382 19.7461 87.2382 23.8242V35.311H89.6341V27.7664C90.5347 29.3807 92.2679 30.2983 94.29 30.2983C97.5525 30.2983 100.645 27.9533 100.645 23.7902C100.662 19.882 97.8753 17.1463 93.8991 17.1463ZM93.9331 28.0723C91.3843 28.0723 89.6511 26.2541 89.6511 23.7223C89.6511 21.1904 91.3673 19.3722 93.9331 19.3722C96.499 19.3722 98.2322 21.1904 98.2322 23.7223C98.2322 26.2541 96.499 28.0723 93.9331 28.0723Z" fill="#E5E5E5"/>
<path d="M108.36 20.3747C108.156 20.3407 107.952 20.3237 107.731 20.3237C105.93 20.3237 104.74 21.2583 104.74 23.5522V31.2837H102.344V23.5692C102.344 19.8819 104.519 18.0977 107.731 18.0977C108.258 18.0977 108.36 18.1317 108.36 18.1317V20.3747Z" fill="#E5E5E5"/>
<path d="M115.089 18.1485C111.146 18.1485 108.36 20.9352 108.36 24.7245C108.36 28.5138 111.146 31.3005 115.089 31.3005C119.031 31.3005 121.817 28.5138 121.817 24.7245C121.817 20.9352 119.031 18.1485 115.089 18.1485ZM115.089 29.0745C112.506 29.0745 110.79 27.2394 110.79 24.7245C110.79 22.2096 112.506 20.3745 115.089 20.3745C117.671 20.3745 119.388 22.1927 119.388 24.7245C119.388 27.2563 117.654 29.0745 115.089 29.0745Z" fill="#E5E5E5"/>
<path d="M129.787 18.1485C125.844 18.1485 123.058 20.9352 123.058 24.7245C123.058 28.5138 125.844 31.3005 129.787 31.3005C133.729 31.3005 136.516 28.5138 136.516 24.7245C136.516 20.9352 133.729 18.1485 129.787 18.1485ZM129.787 29.0745C127.204 29.0745 125.488 27.2563 125.488 24.7245C125.488 22.1927 127.204 20.3745 129.787 20.3745C132.369 20.3745 134.086 22.1927 134.086 24.7245C134.086 27.2563 132.369 29.0745 129.787 29.0745Z" fill="#E5E5E5"/>
<path d="M140.407 18.4208C140.407 18.2848 140.407 18.1659 140.424 18.0639C140.424 17.928 140.441 17.809 140.458 17.6901C140.475 17.5712 140.492 17.4522 140.526 17.3333C140.577 17.1124 140.645 16.9085 140.73 16.7215C140.815 16.5346 140.917 16.3647 141.036 16.2288C141.393 15.787 141.868 15.5151 142.446 15.3622C142.548 15.3452 142.65 15.3112 142.752 15.3112C142.956 15.2772 143.177 15.2602 143.398 15.2602C143.619 15.2602 143.823 15.2772 144.026 15.3112V13.0682C144.026 13.0682 144.009 13.0682 143.942 13.0512C143.925 13.0512 143.908 13.0512 143.891 13.0512C143.721 13.0342 143.568 13.0342 143.398 13.0342C142.99 13.0342 142.616 13.0682 142.242 13.1192C142.106 13.1362 141.97 13.1702 141.834 13.2041C141.699 13.2381 141.563 13.2721 141.444 13.3061C141.359 13.3231 141.274 13.3571 141.189 13.3911C141.036 13.442 140.866 13.51 140.713 13.578C140.56 13.6459 140.407 13.7309 140.271 13.8159C140.135 13.9008 139.999 13.9858 139.863 14.0877C139.659 14.2407 139.49 14.3936 139.32 14.5805C139.269 14.6485 139.201 14.6995 139.15 14.7674C139.099 14.8354 139.048 14.9034 138.997 14.9544C138.895 15.0903 138.81 15.2262 138.725 15.3792C138.674 15.4471 138.64 15.5321 138.606 15.6001C138.572 15.685 138.521 15.753 138.487 15.8379C138.453 15.9229 138.419 16.0079 138.385 16.0928C138.351 16.1778 138.334 16.2628 138.3 16.3477C138.266 16.4327 138.249 16.5346 138.215 16.6196C138.181 16.7046 138.164 16.8065 138.147 16.9085C138.13 16.9934 138.113 17.0954 138.096 17.1803C138.096 17.1973 138.079 17.2143 138.079 17.2313C138.062 17.3163 138.045 17.4182 138.045 17.5032C138.028 17.6051 138.011 17.7071 138.011 17.826C137.994 17.928 137.994 18.0469 137.994 18.1489C137.994 18.2339 137.994 18.3358 137.994 18.4378V31.3179H140.39V22.7198H144.009V20.5108H140.39L140.407 18.4208Z" fill="#E5E5E5"/>
<path d="M145.505 30.9437C146.331 30.9437 147 30.2742 147 29.4484C147 28.6225 146.331 27.9531 145.505 27.9531C144.679 27.9531 144.009 28.6225 144.009 29.4484C144.009 30.2742 144.679 30.9437 145.505 30.9437Z" fill="url(#paint0_linear_1_12077)"/>
</g>
<defs>
<linearGradient id="paint0_linear_1_12077" x1="144.505" y1="30.4518" x2="146.607" y2="28.3491" gradientUnits="userSpaceOnUse">
<stop stop-color="#07BDCB"/>
<stop offset="1" stop-color="#00D064"/>
</linearGradient>
<clipPath id="clip0_1_12077">
<rect width="147" height="22.3108" fill="white" transform="translate(0 13)"/>
</clipPath>
</defs>
</svg>
